<?xml version="1.0" encoding="UTF-8"?>
<svg width="32" height="32" viewBox="0 0 32 32" fill="none" xmlns="http://www.w3.org/2000/svg">
  <!-- Background shapes -->
  <path 
    d="M28 4H4C2.89543 4 2 4.89543 2 6V26C2 27.1046 2.89543 28 4 28H28C29.1046 28 30 27.1046 30 26V6C30 4.89543 29.1046 4 28 4Z" 
    fill="#0071e3" 
    fillOpacity="0.9"
  />
  <path 
    d="M23 8H9C7.89543 8 7 8.89543 7 10V22C7 23.1046 7.89543 24 9 24H23C24.1046 24 25 23.1046 25 22V10C25 8.89543 24.1046 8 23 8Z" 
    fill="#c8a95b" 
    fillOpacity="0.8"
  />
  
  <!-- Shopping bag icon -->
  <path 
    d="M16 11C15.4477 11 15 10.5523 15 10C15 9.44772 15.4477 9 16 9C16.5523 9 17 9.44772 17 10C17 10.5523 16.5523 11 16 11Z" 
    fill="white"
  />
  <path 
    d="M12 15V18C12 20.2091 13.7909 22 16 22C18.2091 22 20 20.2091 20 18V15" 
    stroke="white" 
    strokeWidth="2" 
    strokeLinecap="round" 
  />
  <path 
    d="M10 13H22L21 23H11L10 13Z" 
    stroke="white" 
    strokeWidth="2" 
    strokeLinecap="round" 
    strokeLinejoin="round" 
  />
</svg>